<svg xmlns="http://www.w3.org/2000/svg" xmlns:xlink="http://www.w3.org/1999/xlink" width="800" zoomAndPan="magnify" viewBox="0 0 600 599.999999" height="800" preserveAspectRatio="xMidYMid meet" version="1.0"><defs><clipPath id="3900f60528"><path d="M 210 1.089844 L 600 1.089844 L 600 391 L 210 391 Z M 210 1.089844 " clip-rule="nonzero"/></clipPath><clipPath id="f9add6184e"><path d="M 0 209 L 390 209 L 390 598.839844 L 0 598.839844 Z M 0 209 " clip-rule="nonzero"/></clipPath><clipPath id="d49fb9ac4a"><path d="M 205 326 L 271 326 L 271 390.667969 L 205 390.667969 Z M 205 326 " clip-rule="nonzero"/></clipPath><clipPath id="d0ae3e6846"><path d="M 427 312 L 451.613281 312 L 451.613281 337 L 427 337 Z M 427 312 " clip-rule="nonzero"/></clipPath><clipPath id="12cfc834d5"><path d="M 300 209.167969 L 357 209.167969 L 357 265 L 300 265 Z M 300 209.167969 " clip-rule="nonzero"/></clipPath><clipPath id="cd1f1a14af"><path d="M 148.613281 316 L 166 316 L 166 334 L 148.613281 334 Z M 148.613281 316 " clip-rule="nonzero"/></clipPath></defs><g clip-path="url(#3900f60528)"><path fill="#5ce1e6" d="M 599.816406 300.578125 C 599.816406 350.269531 559.597656 390.488281 509.90625 390.488281 L 325.761719 390.488281 C 262.105469 390.488281 210.421875 338.800781 210.421875 275.148438 L 210.421875 91.003906 C 210.421875 41.308594 250.640625 1.089844 300.332031 1.089844 C 350.023438 1.089844 390.246094 41.308594 390.246094 91.003906 L 390.246094 210.664062 L 509.90625 210.664062 C 559.597656 210.664062 599.816406 251.050781 599.816406 300.578125 Z M 599.816406 300.578125 " fill-opacity="1" fill-rule="nonzero"/></g><g clip-path="url(#f9add6184e)"><path fill="#8c52ff" d="M 0.183594 299.414062 C 0.183594 249.722656 40.402344 209.5 90.09375 209.5 L 274.238281 209.5 C 337.894531 209.5 389.578125 261.1875 389.578125 324.839844 L 389.578125 508.988281 C 389.578125 558.679688 349.359375 598.898438 299.667969 598.898438 C 249.976562 598.898438 209.753906 558.679688 209.753906 508.988281 L 209.753906 389.324219 L 90.09375 389.324219 C 40.402344 389.324219 0.183594 349.105469 0.183594 299.414062 Z M 0.183594 299.414062 " fill-opacity="1" fill-rule="nonzero"/></g><path fill="#4225c4" d="M 389.578125 324.839844 L 389.578125 390.488281 L 325.761719 390.488281 C 262.105469 390.488281 210.421875 338.800781 210.421875 275.148438 L 210.421875 209.5 L 274.238281 209.5 C 337.894531 209.5 389.578125 261.1875 389.578125 324.839844 Z M 389.578125 324.839844 " fill-opacity="1" fill-rule="nonzero"/><path fill="#ffffff" d="M 338.210938 288.949219 C 344.363281 288.949219 349.394531 293.984375 349.394531 300.132812 L 349.394531 315.792969 L 365.054688 315.792969 C 371.207031 315.792969 376.238281 320.828125 376.238281 326.976562 C 376.238281 333.128906 371.207031 338.164062 365.054688 338.164062 L 349.394531 338.164062 L 349.394531 353.820312 C 349.394531 359.972656 344.363281 365.003906 338.210938 365.003906 C 332.058594 365.003906 327.027344 359.972656 327.027344 353.820312 L 327.027344 338.164062 L 311.367188 338.164062 C 305.21875 338.164062 300.183594 333.128906 300.183594 326.976562 C 300.183594 320.828125 305.21875 315.792969 311.367188 315.792969 L 327.027344 315.792969 L 327.027344 300.132812 C 327.027344 293.984375 332.058594 288.949219 338.210938 288.949219 Z M 338.210938 288.949219 " fill-opacity="1" fill-rule="evenodd"/><path fill="#ffffff" d="M 397.316406 293.042969 C 399.449219 293.042969 401.195312 294.789062 401.195312 296.917969 L 401.195312 302.347656 L 406.621094 302.347656 C 408.753906 302.347656 410.5 304.09375 410.5 306.226562 C 410.5 308.355469 408.753906 310.101562 406.621094 310.101562 L 401.195312 310.101562 L 401.195312 315.53125 C 401.195312 317.664062 399.449219 319.40625 397.316406 319.40625 C 395.183594 319.40625 393.4375 317.664062 393.4375 315.53125 L 393.4375 310.101562 L 388.011719 310.101562 C 385.878906 310.101562 384.132812 308.355469 384.132812 306.226562 C 384.132812 304.09375 385.878906 302.347656 388.011719 302.347656 L 393.4375 302.347656 L 393.4375 296.917969 C 393.4375 294.789062 395.183594 293.042969 397.316406 293.042969 Z M 397.316406 293.042969 " fill-opacity="1" fill-rule="evenodd"/><path fill="#ffffff" d="M 288.417969 268.867188 C 291.273438 268.867188 293.609375 271.203125 293.609375 274.0625 L 293.609375 281.332031 L 300.882812 281.332031 C 303.738281 281.332031 306.078125 283.667969 306.078125 286.527344 C 306.078125 289.382812 303.738281 291.71875 300.882812 291.71875 L 293.609375 291.71875 L 293.609375 298.992188 C 293.609375 301.847656 291.273438 304.1875 288.417969 304.1875 C 285.558594 304.1875 283.222656 301.847656 283.222656 298.992188 L 283.222656 291.71875 L 275.953125 291.71875 C 273.09375 291.71875 270.757812 289.382812 270.757812 286.527344 C 270.757812 283.667969 273.09375 281.332031 275.953125 281.332031 L 283.222656 281.332031 L 283.222656 274.0625 C 283.222656 271.203125 285.558594 268.867188 288.417969 268.867188 Z M 288.417969 268.867188 " fill-opacity="1" fill-rule="evenodd"/><path fill="#ffffff" d="M 362.101562 260.191406 C 363.53125 260.191406 364.699219 261.359375 364.699219 262.789062 L 364.699219 266.421875 L 368.335938 266.421875 C 369.761719 266.421875 370.929688 267.59375 370.929688 269.019531 C 370.929688 270.449219 369.761719 271.617188 368.335938 271.617188 L 364.699219 271.617188 L 364.699219 275.253906 C 364.699219 276.679688 363.53125 277.847656 362.101562 277.847656 C 360.675781 277.847656 359.503906 276.679688 359.503906 275.253906 L 359.503906 271.617188 L 355.871094 271.617188 C 354.441406 271.617188 353.273438 270.449219 353.273438 269.019531 C 353.273438 267.59375 354.441406 266.421875 355.871094 266.421875 L 359.503906 266.421875 L 359.503906 262.789062 C 359.503906 261.359375 360.675781 260.191406 362.101562 260.191406 Z M 362.101562 260.191406 " fill-opacity="1" fill-rule="evenodd"/><g clip-path="url(#d49fb9ac4a)"><path fill="#ffffff" d="M 238.121094 326.457031 C 240.863281 326.457031 243.355469 327.582031 245.164062 329.386719 C 246.972656 331.195312 248.09375 333.6875 248.09375 336.429688 L 248.09375 348.65625 L 260.320312 348.65625 C 263.0625 348.65625 265.558594 349.78125 267.363281 351.585938 C 269.171875 353.394531 270.292969 355.886719 270.292969 358.632812 C 270.292969 361.375 269.171875 363.867188 267.363281 365.675781 C 265.558594 367.480469 263.0625 368.605469 260.320312 368.605469 L 248.09375 368.605469 L 248.09375 380.832031 C 248.09375 383.574219 246.972656 386.070312 245.164062 387.875 C 243.355469 389.683594 240.863281 390.804688 238.121094 390.804688 C 235.375 390.804688 232.882812 389.683594 231.074219 387.875 C 229.269531 386.070312 228.144531 383.574219 228.144531 380.832031 L 228.144531 368.605469 L 215.917969 368.605469 C 213.175781 368.605469 210.683594 367.480469 208.875 365.675781 C 207.070312 363.867188 205.945312 361.375 205.945312 358.632812 C 205.945312 355.886719 207.070312 353.394531 208.875 351.585938 C 210.683594 349.78125 213.175781 348.65625 215.917969 348.65625 L 228.144531 348.65625 L 228.144531 336.429688 C 228.144531 333.6875 229.269531 331.195312 231.074219 329.386719 C 232.882812 327.582031 235.375 326.457031 238.121094 326.457031 Z M 244.140625 330.410156 C 242.597656 328.863281 240.464844 327.902344 238.121094 327.902344 C 235.777344 327.902344 233.644531 328.863281 232.097656 330.410156 C 230.550781 331.953125 229.59375 334.085938 229.59375 336.429688 L 229.59375 349.382812 C 229.59375 349.78125 229.269531 350.105469 228.867188 350.105469 L 215.917969 350.105469 C 213.574219 350.105469 211.441406 351.0625 209.898438 352.609375 C 208.351562 354.15625 207.390625 356.289062 207.390625 358.632812 C 207.390625 360.976562 208.351562 363.109375 209.898438 364.652344 C 211.441406 366.199219 213.574219 367.160156 215.917969 367.160156 L 228.867188 367.160156 C 229.269531 367.160156 229.59375 367.484375 229.59375 367.882812 L 229.59375 380.832031 C 229.59375 383.175781 230.550781 385.308594 232.097656 386.855469 C 233.644531 388.398438 235.777344 389.359375 238.121094 389.359375 C 240.464844 389.359375 242.59375 388.398438 244.140625 386.855469 C 245.6875 385.308594 246.648438 383.175781 246.648438 380.832031 L 246.648438 367.882812 C 246.648438 367.484375 246.972656 367.160156 247.371094 367.160156 L 260.320312 367.160156 C 262.664062 367.160156 264.796875 366.199219 266.34375 364.652344 C 267.886719 363.109375 268.847656 360.976562 268.847656 358.632812 C 268.847656 356.289062 267.890625 354.15625 266.34375 352.609375 C 264.796875 351.066406 262.664062 350.105469 260.320312 350.105469 L 247.371094 350.105469 C 246.972656 350.105469 246.648438 349.78125 246.648438 349.382812 L 246.648438 336.429688 C 246.648438 334.085938 245.6875 331.953125 244.140625 330.410156 Z M 244.140625 330.410156 " fill-opacity="1" fill-rule="nonzero"/></g><g clip-path="url(#d0ae3e6846)"><path fill="#ffffff" d="M 439.589844 312.902344 C 440.613281 312.902344 441.542969 313.320312 442.21875 313.992188 L 442.21875 313.996094 C 442.894531 314.671875 443.3125 315.601562 443.3125 316.625 L 443.3125 320.96875 L 447.65625 320.96875 C 448.679688 320.96875 449.609375 321.386719 450.285156 322.058594 C 450.960938 322.734375 451.378906 323.664062 451.378906 324.6875 C 451.378906 325.714844 450.960938 326.644531 450.285156 327.316406 L 450.265625 327.335938 C 449.59375 328 448.671875 328.410156 447.65625 328.410156 L 443.3125 328.410156 L 443.3125 332.753906 C 443.3125 333.777344 442.894531 334.707031 442.222656 335.382812 L 442.21875 335.386719 C 441.542969 336.058594 440.613281 336.476562 439.589844 336.476562 C 438.566406 336.476562 437.636719 336.058594 436.960938 335.386719 L 436.941406 335.363281 C 436.28125 334.691406 435.867188 333.769531 435.867188 332.757812 L 435.867188 328.414062 L 431.523438 328.414062 C 430.5 328.414062 429.570312 327.992188 428.898438 327.320312 C 428.222656 326.644531 427.800781 325.714844 427.800781 324.691406 C 427.800781 323.667969 428.222656 322.734375 428.894531 322.0625 L 428.914062 322.042969 C 429.589844 321.378906 430.511719 320.96875 431.523438 320.96875 L 435.867188 320.96875 L 435.867188 316.625 C 435.867188 315.601562 436.285156 314.671875 436.960938 313.996094 C 437.636719 313.320312 438.566406 312.902344 439.589844 312.902344 Z M 441.707031 314.503906 C 441.164062 313.960938 440.414062 313.625 439.589844 313.625 C 438.765625 313.625 438.015625 313.960938 437.472656 314.503906 C 436.929688 315.046875 436.589844 315.796875 436.589844 316.625 L 436.589844 321.328125 C 436.589844 321.527344 436.429688 321.691406 436.230469 321.691406 L 431.523438 321.691406 C 430.707031 321.691406 429.964844 322.019531 429.421875 322.554688 L 429.40625 322.570312 C 428.863281 323.113281 428.523438 323.863281 428.523438 324.6875 C 428.523438 325.511719 428.863281 326.265625 429.40625 326.808594 C 429.949219 327.351562 430.699219 327.6875 431.523438 327.6875 L 436.230469 327.6875 C 436.429688 327.6875 436.589844 327.851562 436.589844 328.050781 L 436.589844 332.753906 C 436.589844 333.570312 436.921875 334.316406 437.453125 334.855469 L 437.472656 334.871094 C 438.015625 335.417969 438.765625 335.753906 439.589844 335.753906 C 440.414062 335.753906 441.164062 335.417969 441.707031 334.875 C 442.25 334.328125 442.589844 333.578125 442.589844 332.753906 L 442.589844 328.050781 C 442.589844 327.851562 442.75 327.6875 442.949219 327.6875 L 447.65625 327.6875 C 448.472656 327.6875 449.214844 327.359375 449.757812 326.824219 L 449.773438 326.808594 C 450.316406 326.265625 450.65625 325.515625 450.65625 324.691406 C 450.65625 323.867188 450.316406 323.113281 449.773438 322.570312 C 449.230469 322.027344 448.480469 321.691406 447.65625 321.691406 L 442.949219 321.691406 C 442.75 321.691406 442.589844 321.527344 442.589844 321.328125 L 442.589844 316.621094 C 442.589844 315.796875 442.25 315.046875 441.707031 314.503906 Z M 441.707031 314.503906 " fill-opacity="1" fill-rule="nonzero"/></g><path fill="#ffffff" d="M 195.773438 292.628906 C 197.285156 292.628906 198.660156 293.246094 199.65625 294.242188 C 200.652344 295.238281 201.269531 296.613281 201.269531 298.125 L 201.269531 304.949219 L 208.09375 304.949219 C 209.605469 304.949219 210.980469 305.566406 211.976562 306.5625 C 212.96875 307.558594 213.589844 308.929688 213.589844 310.441406 C 213.589844 311.953125 212.96875 313.328125 211.976562 314.324219 C 210.980469 315.316406 209.605469 315.9375 208.09375 315.9375 L 201.269531 315.9375 L 201.269531 322.761719 C 201.269531 324.273438 200.652344 325.644531 199.65625 326.640625 C 198.660156 327.636719 197.285156 328.253906 195.773438 328.253906 C 194.265625 328.253906 192.890625 327.636719 191.894531 326.640625 C 190.898438 325.644531 190.28125 324.273438 190.28125 322.761719 L 190.28125 315.9375 L 183.457031 315.9375 C 181.945312 315.9375 180.570312 315.316406 179.574219 314.320312 C 178.582031 313.328125 177.960938 311.953125 177.960938 310.441406 C 177.960938 308.929688 178.582031 307.554688 179.574219 306.5625 C 180.570312 305.566406 181.945312 304.945312 183.457031 304.945312 L 190.28125 304.945312 L 190.28125 298.121094 C 190.28125 296.609375 190.898438 295.238281 191.894531 294.242188 C 192.890625 293.246094 194.265625 292.628906 195.773438 292.628906 Z M 199.144531 294.753906 C 198.28125 293.886719 197.085938 293.351562 195.773438 293.351562 C 194.464844 293.351562 193.269531 293.886719 192.40625 294.753906 C 191.539062 295.617188 191.003906 296.8125 191.003906 298.125 L 191.003906 305.308594 C 191.003906 305.507812 190.839844 305.671875 190.640625 305.671875 L 183.457031 305.671875 C 182.144531 305.671875 180.949219 306.207031 180.085938 307.074219 C 179.222656 307.9375 178.683594 309.132812 178.683594 310.441406 C 178.683594 311.753906 179.222656 312.949219 180.085938 313.8125 C 180.949219 314.675781 182.144531 315.214844 183.457031 315.214844 L 190.640625 315.214844 C 190.839844 315.214844 191.003906 315.378906 191.003906 315.578125 L 191.003906 322.761719 C 191.003906 324.074219 191.539062 325.269531 192.40625 326.132812 C 193.269531 326.996094 194.464844 327.535156 195.773438 327.535156 C 197.085938 327.535156 198.28125 326.996094 199.144531 326.132812 C 200.011719 325.265625 200.546875 324.074219 200.546875 322.761719 L 200.546875 315.578125 C 200.546875 315.378906 200.707031 315.214844 200.910156 315.214844 L 208.09375 315.214844 C 209.40625 315.214844 210.601562 314.675781 211.464844 313.8125 C 212.328125 312.949219 212.867188 311.753906 212.867188 310.441406 C 212.867188 309.128906 212.328125 307.9375 211.464844 307.074219 C 210.601562 306.207031 209.40625 305.671875 208.09375 305.671875 L 200.910156 305.671875 C 200.710938 305.671875 200.546875 305.507812 200.546875 305.308594 L 200.546875 298.125 C 200.546875 296.8125 200.011719 295.617188 199.144531 294.753906 Z M 199.144531 294.753906 " fill-opacity="1" fill-rule="nonzero"/><path fill="#ffffff" d="M 258.117188 298.5 C 259.140625 298.5 260.070312 298.917969 260.746094 299.59375 C 261.421875 300.269531 261.839844 301.199219 261.839844 302.222656 L 261.839844 306.566406 L 266.183594 306.566406 C 267.207031 306.566406 268.136719 306.984375 268.8125 307.660156 C 269.488281 308.332031 269.90625 309.265625 269.90625 310.289062 C 269.90625 311.3125 269.488281 312.242188 268.8125 312.917969 L 268.792969 312.9375 C 268.121094 313.601562 267.199219 314.011719 266.183594 314.011719 L 261.84375 314.011719 L 261.84375 318.355469 C 261.84375 319.378906 261.421875 320.308594 260.75 320.984375 L 260.746094 320.984375 C 260.074219 321.660156 259.140625 322.078125 258.117188 322.078125 C 257.09375 322.078125 256.164062 321.660156 255.488281 320.984375 L 255.46875 320.964844 C 254.808594 320.292969 254.394531 319.367188 254.394531 318.355469 L 254.394531 314.011719 L 250.054688 314.011719 C 249.03125 314.011719 248.097656 313.59375 247.425781 312.917969 C 246.75 312.246094 246.332031 311.3125 246.332031 310.289062 C 246.332031 309.265625 246.75 308.335938 247.421875 307.660156 L 247.445312 307.640625 C 248.117188 306.976562 249.039062 306.566406 250.050781 306.566406 L 254.394531 306.566406 L 254.394531 302.222656 C 254.394531 301.199219 254.8125 300.269531 255.488281 299.597656 C 256.164062 298.921875 257.09375 298.5 258.117188 298.5 Z M 260.238281 300.105469 C 259.691406 299.5625 258.941406 299.222656 258.117188 299.222656 C 257.292969 299.222656 256.542969 299.5625 256 300.105469 C 255.457031 300.648438 255.117188 301.398438 255.117188 302.222656 L 255.117188 306.925781 C 255.117188 307.125 254.957031 307.289062 254.757812 307.289062 L 250.050781 307.289062 C 249.234375 307.289062 248.492188 307.621094 247.949219 308.152344 L 247.933594 308.167969 C 247.390625 308.714844 247.054688 309.464844 247.054688 310.289062 C 247.054688 311.113281 247.390625 311.863281 247.933594 312.40625 C 248.476562 312.949219 249.226562 313.289062 250.054688 313.289062 L 254.757812 313.289062 C 254.957031 313.289062 255.121094 313.449219 255.121094 313.648438 L 255.121094 318.355469 C 255.121094 319.171875 255.449219 319.914062 255.984375 320.457031 L 256 320.472656 C 256.542969 321.015625 257.292969 321.355469 258.117188 321.355469 C 258.945312 321.355469 259.695312 321.015625 260.238281 320.472656 C 260.78125 319.929688 261.117188 319.179688 261.117188 318.355469 L 261.117188 313.648438 C 261.117188 313.449219 261.277344 313.289062 261.480469 313.289062 L 266.183594 313.289062 C 267 313.289062 267.746094 312.957031 268.285156 312.425781 L 268.300781 312.40625 C 268.847656 311.863281 269.183594 311.113281 269.183594 310.289062 C 269.183594 309.464844 268.847656 308.714844 268.300781 308.171875 C 267.757812 307.628906 267.007812 307.289062 266.183594 307.289062 L 261.480469 307.289062 C 261.28125 307.289062 261.117188 307.128906 261.117188 306.929688 L 261.117188 302.222656 C 261.117188 301.398438 260.78125 300.648438 260.238281 300.105469 Z M 260.238281 300.105469 " fill-opacity="1" fill-rule="nonzero"/><g clip-path="url(#12cfc834d5)"><path fill="#ffffff" d="M 328.605469 209.191406 C 330.996094 209.191406 333.167969 210.171875 334.742188 211.746094 C 336.316406 213.320312 337.292969 215.492188 337.292969 217.882812 L 337.292969 228.308594 L 347.722656 228.308594 C 350.109375 228.308594 352.28125 229.285156 353.859375 230.859375 C 355.433594 232.433594 356.410156 234.605469 356.410156 236.996094 C 356.410156 239.386719 355.433594 241.558594 353.859375 243.132812 C 352.28125 244.707031 350.109375 245.683594 347.722656 245.683594 L 337.292969 245.683594 L 337.292969 256.113281 C 337.292969 258.503906 336.316406 260.675781 334.742188 262.25 C 333.167969 263.824219 330.996094 264.800781 328.605469 264.800781 C 326.214844 264.800781 324.042969 263.824219 322.46875 262.25 C 320.894531 260.675781 319.917969 258.503906 319.917969 256.113281 L 319.917969 245.683594 L 309.488281 245.683594 C 307.097656 245.683594 304.925781 244.707031 303.351562 243.132812 C 301.777344 241.558594 300.800781 239.386719 300.800781 236.996094 C 300.800781 234.605469 301.777344 232.433594 303.351562 230.859375 C 304.925781 229.285156 307.097656 228.308594 309.488281 228.308594 L 319.917969 228.308594 L 319.917969 217.882812 C 319.917969 215.492188 320.894531 213.320312 322.46875 211.746094 C 324.042969 210.171875 326.214844 209.191406 328.605469 209.191406 Z M 333.71875 212.765625 C 332.40625 211.453125 330.597656 210.640625 328.605469 210.640625 C 326.613281 210.640625 324.804688 211.453125 323.492188 212.765625 C 322.179688 214.078125 321.363281 215.890625 321.363281 217.882812 L 321.363281 229.03125 C 321.363281 229.433594 321.039062 229.757812 320.640625 229.757812 L 309.488281 229.757812 C 307.5 229.757812 305.6875 230.570312 304.375 231.882812 C 303.0625 233.195312 302.246094 235.007812 302.246094 236.996094 C 302.246094 238.988281 303.0625 240.796875 304.375 242.109375 C 305.6875 243.421875 307.5 244.238281 309.488281 244.238281 L 320.640625 244.238281 C 321.039062 244.238281 321.363281 244.5625 321.363281 244.960938 L 321.363281 256.113281 C 321.363281 258.105469 322.179688 259.914062 323.492188 261.226562 C 324.804688 262.539062 326.613281 263.355469 328.605469 263.355469 C 330.597656 263.355469 332.40625 262.539062 333.71875 261.226562 C 335.03125 259.914062 335.847656 258.105469 335.847656 256.113281 L 335.847656 244.960938 C 335.847656 244.5625 336.171875 244.238281 336.570312 244.238281 L 347.722656 244.238281 C 349.710938 244.238281 351.523438 243.425781 352.835938 242.109375 C 354.148438 240.800781 354.964844 238.988281 354.964844 236.996094 C 354.964844 235.007812 354.148438 233.195312 352.835938 231.882812 C 351.523438 230.570312 349.714844 229.757812 347.722656 229.757812 L 336.570312 229.757812 C 336.171875 229.757812 335.847656 229.433594 335.847656 229.03125 L 335.847656 217.882812 C 335.847656 215.890625 335.03125 214.082031 333.71875 212.765625 Z M 333.71875 212.765625 " fill-opacity="1" fill-rule="nonzero"/></g><g clip-path="url(#cd1f1a14af)"><path fill="#ffffff" d="M 157.140625 316.269531 C 158.519531 316.269531 159.652344 317.398438 159.652344 318.777344 L 159.652344 322.289062 L 163.164062 322.289062 C 164.542969 322.289062 165.671875 323.417969 165.671875 324.800781 C 165.671875 326.179688 164.542969 327.308594 163.164062 327.308594 L 159.652344 327.308594 L 159.652344 330.820312 C 159.652344 332.199219 158.519531 333.328125 157.140625 333.328125 C 155.761719 333.328125 154.632812 332.199219 154.632812 330.820312 L 154.632812 327.308594 L 151.121094 327.308594 C 149.742188 327.308594 148.613281 326.179688 148.613281 324.800781 C 148.613281 323.421875 149.742188 322.289062 151.121094 322.289062 L 154.632812 322.289062 L 154.632812 318.777344 C 154.632812 317.398438 155.761719 316.269531 157.140625 316.269531 Z M 157.140625 316.269531 " fill-opacity="1" fill-rule="evenodd"/></g></svg>